<mxfile host="app.diagrams.net" modified="2024-04-23T02:36:02.240Z" agent="Mozilla/5.0 (Macintosh; Intel Mac OS X 10_15_7) AppleWebKit/537.36 (KHTML, like Gecko) Chrome/124.0.0.0 Safari/537.36" etag="61pYO7JbpElifOA0Y2Iy" version="24.2.7" type="github">
  <diagram name="ページ1" id="HgzPUHLJUSmmqK3GFjfl">
    <mxGraphModel dx="909" dy="470" grid="1" gridSize="10" guides="1" tooltips="1" connect="1" arrows="1" fold="1" page="1" pageScale="1" pageWidth="827" pageHeight="1169" math="0" shadow="0">
      <root>
        <mxCell id="0" />
        <mxCell id="1" parent="0" />
        <mxCell id="4yYE4AD_Py0sIFRagfzc-1" value="" style="rounded=0;whiteSpace=wrap;html=1;" vertex="1" parent="1">
          <mxGeometry x="40" y="460" width="200" height="60" as="geometry" />
        </mxCell>
        <mxCell id="4yYE4AD_Py0sIFRagfzc-2" value="frontend" style="text;html=1;align=center;verticalAlign=middle;whiteSpace=wrap;rounded=0;" vertex="1" parent="1">
          <mxGeometry x="110" y="460" width="60" height="30" as="geometry" />
        </mxCell>
        <mxCell id="4yYE4AD_Py0sIFRagfzc-3" value="&lt;font style=&quot;font-size: 14px;&quot;&gt;&lt;b&gt;Next.js&lt;/b&gt;&lt;/font&gt;" style="text;html=1;align=center;verticalAlign=middle;whiteSpace=wrap;rounded=0;" vertex="1" parent="1">
          <mxGeometry x="110" y="480" width="60" height="30" as="geometry" />
        </mxCell>
        <mxCell id="4yYE4AD_Py0sIFRagfzc-6" value="&lt;h1 style=&quot;margin-top: 0px;&quot;&gt;&lt;font style=&quot;font-size: 18px;&quot;&gt;選定理由&lt;/font&gt;&lt;/h1&gt;&lt;p&gt;UX向上を目的としたリッチなUIを利用するため&lt;/p&gt;&lt;p&gt;・SPAアプリケーション&lt;/p&gt;&lt;p&gt;・アニメーション&lt;/p&gt;&lt;p&gt;・リアルタイムなデータの更新&lt;/p&gt;&lt;p&gt;・リアルタイムなフォームバリデーション&lt;/p&gt;&lt;p&gt;・処理速度の高速化&lt;/p&gt;&lt;p&gt;適切なクライアント、サーバーサイドで処理を行うことで実現する&lt;/p&gt;&lt;p&gt;&lt;br&gt;&lt;/p&gt;" style="text;html=1;whiteSpace=wrap;overflow=hidden;rounded=0;" vertex="1" parent="1">
          <mxGeometry x="40" y="525" width="180" height="315" as="geometry" />
        </mxCell>
        <mxCell id="4yYE4AD_Py0sIFRagfzc-7" value="" style="triangle;whiteSpace=wrap;html=1;" vertex="1" parent="1">
          <mxGeometry x="280" y="480" width="10" height="20" as="geometry" />
        </mxCell>
        <mxCell id="4yYE4AD_Py0sIFRagfzc-8" value="" style="rounded=0;whiteSpace=wrap;html=1;" vertex="1" parent="1">
          <mxGeometry x="320" y="460" width="200" height="60" as="geometry" />
        </mxCell>
        <mxCell id="4yYE4AD_Py0sIFRagfzc-9" value="backend" style="text;html=1;align=center;verticalAlign=middle;whiteSpace=wrap;rounded=0;" vertex="1" parent="1">
          <mxGeometry x="390" y="460" width="60" height="30" as="geometry" />
        </mxCell>
        <mxCell id="4yYE4AD_Py0sIFRagfzc-10" value="&lt;font style=&quot;font-size: 14px;&quot;&gt;&lt;b&gt;Laravel&lt;/b&gt;&lt;/font&gt;" style="text;html=1;align=center;verticalAlign=middle;whiteSpace=wrap;rounded=0;" vertex="1" parent="1">
          <mxGeometry x="390" y="480" width="60" height="30" as="geometry" />
        </mxCell>
        <mxCell id="4yYE4AD_Py0sIFRagfzc-11" value="&lt;h1 style=&quot;margin-top: 0px;&quot;&gt;&lt;font style=&quot;font-size: 18px;&quot;&gt;選定理由&lt;/font&gt;&lt;/h1&gt;&lt;p&gt;・ORMを利用することによるセキュリティ向上&lt;/p&gt;&lt;p&gt;・MVCモデルによる開発効率の向上&lt;/p&gt;&lt;p&gt;・セキュリティ向上APIの利用&lt;/p&gt;&lt;p&gt;&lt;br&gt;&lt;/p&gt;" style="text;html=1;whiteSpace=wrap;overflow=hidden;rounded=0;" vertex="1" parent="1">
          <mxGeometry x="320" y="525" width="180" height="315" as="geometry" />
        </mxCell>
        <mxCell id="4yYE4AD_Py0sIFRagfzc-12" value="" style="rounded=0;whiteSpace=wrap;html=1;" vertex="1" parent="1">
          <mxGeometry x="600" y="460" width="200" height="60" as="geometry" />
        </mxCell>
        <mxCell id="4yYE4AD_Py0sIFRagfzc-13" value="DB" style="text;html=1;align=center;verticalAlign=middle;whiteSpace=wrap;rounded=0;" vertex="1" parent="1">
          <mxGeometry x="670" y="460" width="60" height="30" as="geometry" />
        </mxCell>
        <mxCell id="4yYE4AD_Py0sIFRagfzc-14" value="" style="triangle;whiteSpace=wrap;html=1;" vertex="1" parent="1">
          <mxGeometry x="560" y="480" width="10" height="20" as="geometry" />
        </mxCell>
        <mxCell id="4yYE4AD_Py0sIFRagfzc-15" value="&lt;font style=&quot;font-size: 14px;&quot;&gt;&lt;b&gt;MySQL&lt;/b&gt;&lt;/font&gt;" style="text;html=1;align=center;verticalAlign=middle;whiteSpace=wrap;rounded=0;" vertex="1" parent="1">
          <mxGeometry x="670" y="480" width="60" height="30" as="geometry" />
        </mxCell>
      </root>
    </mxGraphModel>
  </diagram>
</mxfile>
